<svg width="1338" height="620" viewBox="0 0 1338 620" fill="none" xmlns="http://www.w3.org/2000/svg"> <path d="M228.168 108.959L286.672 269.695L286.674 269.692L287.125 270.93L335.291 403.271L335.524 403.914L334.841 403.913H238.841L238.84 403.917H238.837L189.043 540.727L188.928 541.042H70L70.2344 540.398L120.145 403.274L120.259 402.959H120.261L227.268 108.959L227.718 107.723L228.168 108.959ZM357.464 78.0039H381.471L381.586 78.3184L499.859 403.273L500.094 403.917H500.092L549.766 540.398L550 541.042H436.067L435.953 540.727L386.043 403.602L385.809 402.959H385.811L312.05 200.302L311.99 200.138L311.991 200.134L267.773 78.6426L267.539 78H357.465L357.464 78.0039Z" fill="#2877EE"/> <path d="M660 412.801L739.891 202.5H768.087L847.978 412.801H820.663L762.801 255.663L754.577 233.046H753.402L745.178 255.663L687.316 412.801H660ZM751.052 354.939V331.441H799.515L808.033 354.939H751.052ZM694.071 354.939L702.589 331.441H751.052V354.939H694.071Z" fill="#2877EE"/> <path d="M850.812 285.622V263.005H878.715V285.622H850.812ZM918.954 415.15C906.422 415.15 896.338 411.43 888.701 403.989C881.065 396.352 877.246 386.17 877.246 373.443V220.71H902.212V367.275C902.212 375.694 903.877 381.96 907.205 386.072C910.73 389.989 915.919 391.947 922.772 391.947C925.905 391.947 928.843 391.555 931.584 390.772C934.325 389.793 936.969 388.52 939.514 386.954V411.332C936.381 412.507 933.15 413.388 929.822 413.975C926.493 414.759 922.87 415.15 918.954 415.15ZM900.744 285.622V263.005H938.927V285.622H900.744Z" fill="#2877EE"/> <path d="M968.668 412.801V202.5H993.634V412.801H968.668Z" fill="#2877EE"/> <path d="M1078.51 417.5C1067.35 417.5 1057.56 415.346 1049.14 411.038C1040.72 406.73 1034.06 400.856 1029.17 393.415C1024.47 385.779 1022.12 377.163 1022.12 367.568C1022.12 356.603 1024.96 347.4 1030.64 339.959C1036.32 332.322 1043.95 326.644 1053.55 322.923C1063.14 319.007 1073.72 317.049 1085.27 317.049C1091.93 317.049 1098.09 317.637 1103.77 318.811C1109.45 319.791 1114.35 321.063 1118.46 322.63C1122.77 324 1126 325.371 1128.15 326.742V317.637C1128.15 306.28 1124.14 297.272 1116.11 290.615C1108.08 283.957 1098.29 280.628 1086.74 280.628C1078.51 280.628 1070.78 282.489 1063.53 286.209C1056.48 289.734 1050.9 294.727 1046.79 301.189L1027.99 287.09C1031.91 281.216 1036.81 276.125 1042.68 271.817C1048.55 267.509 1055.21 264.18 1062.65 261.831C1070.29 259.481 1078.32 258.306 1086.74 258.306C1107.1 258.306 1123.06 263.691 1134.61 274.46C1146.17 285.23 1151.94 299.72 1151.94 317.93V412.801H1128.15V391.359H1126.98C1124.43 395.667 1120.81 399.877 1116.11 403.989C1111.41 407.905 1105.83 411.136 1099.37 413.682C1093.1 416.227 1086.15 417.5 1078.51 417.5ZM1080.86 395.471C1089.48 395.471 1097.31 393.317 1104.36 389.01C1111.6 384.702 1117.38 378.925 1121.69 371.68C1126 364.435 1128.15 356.505 1128.15 347.889C1123.65 344.756 1117.97 342.211 1111.12 340.253C1104.46 338.295 1097.11 337.316 1089.09 337.316C1074.79 337.316 1064.32 340.253 1057.66 346.127C1051 352.001 1047.67 359.246 1047.67 367.862C1047.67 376.086 1050.81 382.744 1057.07 387.835C1063.34 392.926 1071.27 395.471 1080.86 395.471Z" fill="#2877EE"/> <path d="M1238.37 417.5C1227.21 417.5 1217.32 415.738 1208.7 412.213C1200.28 408.493 1193.23 403.597 1187.55 397.527C1182.07 391.261 1177.96 384.506 1175.22 377.261L1197.54 367.275C1201.46 376.282 1207.14 383.233 1214.58 388.128C1222.02 393.024 1230.54 395.471 1240.13 395.471C1249.33 395.471 1256.97 393.611 1263.04 389.891C1269.31 386.17 1272.44 380.688 1272.44 373.443C1272.44 368.939 1271.17 365.219 1268.62 362.281C1266.08 359.148 1262.35 356.505 1257.46 354.351C1252.56 352.197 1246.59 350.239 1239.54 348.477L1221.33 343.777C1214.28 341.819 1207.63 339.078 1201.36 335.553C1195.09 332.029 1190 327.525 1186.09 322.042C1182.37 316.364 1180.51 309.51 1180.51 301.482C1180.51 292.475 1183.15 284.74 1188.44 278.279C1193.72 271.817 1200.67 266.922 1209.29 263.593C1217.91 260.068 1227.11 258.306 1236.9 258.306C1245.51 258.306 1253.54 259.579 1260.98 262.124C1268.62 264.474 1275.28 268.097 1280.96 272.992C1286.64 277.691 1290.94 283.566 1293.88 290.615L1272.15 300.601C1268.42 293.16 1263.43 287.971 1257.17 285.034C1250.9 282.097 1243.95 280.628 1236.31 280.628C1228.09 280.628 1220.94 282.489 1214.87 286.209C1208.8 289.734 1205.77 294.629 1205.77 300.895C1205.77 307.161 1208.21 311.86 1213.11 314.993C1218.2 318.126 1224.37 320.672 1231.61 322.63L1253.35 328.21C1268.03 331.931 1279.1 337.511 1286.54 344.952C1293.98 352.197 1297.7 361.107 1297.7 371.68C1297.7 381.079 1295.05 389.205 1289.77 396.059C1284.48 402.912 1277.33 408.199 1268.33 411.919C1259.32 415.64 1249.33 417.5 1238.37 417.5Z" fill="#2877EE"/> </svg>